<?xml version="1.0" standalone="no"?>
<svg xmlns:xlink="http://www.w3.org/1999/xlink" id="wave" style="transform:rotate(0deg); transition: 0.3s" viewBox="0 0 1440 100" version="1.1" xmlns="http://www.w3.org/2000/svg"><defs><linearGradient id="sw-gradient-0" x1="0" x2="0" y1="1" y2="0"><stop stop-color="rgba(0, 127.87, 15.668, 0.72)" offset="0%"/><stop stop-color="rgba(38.969, 255, 11, 0.79)" offset="100%"/></linearGradient></defs><path style="transform:translate(0, 0px); opacity:1" fill="url(#sw-gradient-0)" d="M0,20L20,28.3C40,37,80,53,120,63.3C160,73,200,77,240,75C280,73,320,67,360,55C400,43,440,27,480,20C520,13,560,17,600,28.3C640,40,680,60,720,58.3C760,57,800,33,840,28.3C880,23,920,37,960,50C1000,63,1040,77,1080,71.7C1120,67,1160,43,1200,30C1240,17,1280,13,1320,18.3C1360,23,1400,37,1440,48.3C1480,60,1520,70,1560,68.3C1600,67,1640,53,1680,53.3C1720,53,1760,67,1800,66.7C1840,67,1880,53,1920,46.7C1960,40,2000,40,2040,38.3C2080,37,2120,33,2160,35C2200,37,2240,43,2280,38.3C2320,33,2360,17,2400,15C2440,13,2480,27,2520,33.3C2560,40,2600,40,2640,48.3C2680,57,2720,73,2760,76.7C2800,80,2840,70,2860,65L2880,60L2880,100L2860,100C2840,100,2800,100,2760,100C2720,100,2680,100,2640,100C2600,100,2560,100,2520,100C2480,100,2440,100,2400,100C2360,100,2320,100,2280,100C2240,100,2200,100,2160,100C2120,100,2080,100,2040,100C2000,100,1960,100,1920,100C1880,100,1840,100,1800,100C1760,100,1720,100,1680,100C1640,100,1600,100,1560,100C1520,100,1480,100,1440,100C1400,100,1360,100,1320,100C1280,100,1240,100,1200,100C1160,100,1120,100,1080,100C1040,100,1000,100,960,100C920,100,880,100,840,100C800,100,760,100,720,100C680,100,640,100,600,100C560,100,520,100,480,100C440,100,400,100,360,100C320,100,280,100,240,100C200,100,160,100,120,100C80,100,40,100,20,100L0,100Z"/></svg>